# Blender v2.80 (sub 75) OBJ File: ''
# www.blender.org
mtllib 5.mtl
o Cube_Cube.001
v -0.500000 -0.500000 0.500000
v -0.511425 0.511425 0.511425
v -0.500000 -0.500000 -0.500000
v -0.493103 0.493103 -0.493103
v 0.500000 -0.500000 0.500000
v 0.498452 0.498452 0.498452
v 0.500000 -0.500000 -0.500000
v 0.494565 0.494565 -0.494565
v -0.505279 0.505279 0.000000
v 0.000000 0.507240 -0.507240
v 0.492384 0.492384 0.000000
v 0.000000 0.509720 0.509720
v 0.000000 0.489233 0.000000
v -0.498810 0.498810 -0.250000
v 0.250000 0.488814 -0.488814
v 0.510722 0.510722 0.250000
v -0.250000 0.513624 0.513624
v -0.493043 0.493043 0.250000
v -0.250000 0.490465 -0.490465
v 0.501517 0.501517 -0.250000
v 0.250000 0.494503 0.494503
v 0.000000 0.509523 0.250000
v 0.000000 0.513488 -0.250000
v 0.250000 0.499347 0.000000
v -0.250000 0.483744 0.000000
v -0.250000 0.518710 -0.250000
v 0.250000 0.494745 -0.250000
v 0.250000 0.491088 0.250000
v -0.250000 0.481309 0.250000
v -0.504433 0.504433 -0.375000
v 0.375000 0.494618 -0.494618
v 0.499270 0.499270 0.375000
v -0.375000 0.502922 0.502922
v -0.492233 0.492233 0.125000
v -0.125000 0.496669 -0.496669
v 0.485866 0.485866 -0.125000
v 0.125000 0.513146 0.513146
v 0.000000 0.491644 0.375000
v 0.000000 0.501980 -0.125000
v 0.375000 0.495025 0.000000
v -0.125000 0.512416 0.000000
v -0.496010 0.496010 -0.125000
v 0.125000 0.485944 -0.485944
v 0.500111 0.500111 0.125000
v -0.125000 0.510760 0.510760
v -0.496530 0.496530 0.375000
v -0.375000 0.496053 -0.496053
v 0.497396 0.497396 -0.375000
v 0.375000 0.488117 0.488117
v 0.000000 0.501971 0.125000
v 0.000000 0.519041 -0.375000
v 0.125000 0.503168 0.000000
v -0.375000 0.518052 0.000000
v -0.250000 0.505626 -0.125000
v -0.250000 0.489180 -0.375000
v -0.125000 0.511184 -0.250000
v -0.375000 0.517142 -0.250000
v 0.250000 0.516358 -0.125000
v 0.250000 0.495508 -0.375000
v 0.375000 0.509015 -0.250000
v 0.125000 0.496278 -0.250000
v 0.250000 0.503688 0.375000
v 0.250000 0.498785 0.125000
v 0.375000 0.505410 0.250000
v 0.125000 0.497625 0.250000
v -0.250000 0.486946 0.375000
v -0.250000 0.497229 0.125000
v -0.125000 0.508632 0.250000
v -0.375000 0.506495 0.250000
v -0.375000 0.489803 0.125000
v -0.125000 0.499027 0.125000
v -0.125000 0.497093 0.375000
v 0.125000 0.480248 0.125000
v 0.375000 0.517332 0.125000
v 0.375000 0.504853 0.375000
v 0.125000 0.505743 -0.375000
v 0.375000 0.503053 -0.375000
v 0.375000 0.489021 -0.125000
v -0.375000 0.515907 -0.375000
v -0.125000 0.499541 -0.375000
v -0.125000 0.505477 -0.125000
v -0.375000 0.517153 -0.125000
v 0.125000 0.509151 -0.125000
v 0.125000 0.501844 0.375000
v -0.375000 0.494496 0.375000
vt 0.375000 0.000000
vt 0.625000 0.000000
vt 0.625000 0.031250
vt 0.625000 0.062500
vt 0.625000 0.093750
vt 0.625000 0.125000
vt 0.625000 0.156250
vt 0.625000 0.187500
vt 0.625000 0.218750
vt 0.625000 0.250000
vt 0.375000 0.250000
vt 0.625000 0.281250
vt 0.625000 0.312500
vt 0.625000 0.343750
vt 0.625000 0.375000
vt 0.625000 0.406250
vt 0.625000 0.437500
vt 0.625000 0.468750
vt 0.625000 0.500000
vt 0.375000 0.500000
vt 0.625000 0.531250
vt 0.625000 0.562500
vt 0.625000 0.593750
vt 0.625000 0.625000
vt 0.625000 0.656250
vt 0.625000 0.687500
vt 0.625000 0.718750
vt 0.625000 0.750000
vt 0.375000 0.750000
vt 0.625000 0.781250
vt 0.625000 0.812500
vt 0.625000 0.843750
vt 0.625000 0.875000
vt 0.625000 0.906250
vt 0.625000 0.937500
vt 0.625000 0.968750
vt 0.625000 1.000000
vt 0.375000 1.000000
vt 0.125000 0.500000
vt 0.125000 0.750000
vt 0.843750 0.718750
vt 0.875000 0.718750
vt 0.875000 0.750000
vt 0.843750 0.750000
vt 0.718750 0.718750
vt 0.750000 0.718750
vt 0.750000 0.750000
vt 0.718750 0.750000
vt 0.718750 0.593750
vt 0.750000 0.593750
vt 0.750000 0.625000
vt 0.718750 0.625000
vt 0.843750 0.593750
vt 0.875000 0.593750
vt 0.875000 0.625000
vt 0.843750 0.625000
vt 0.781250 0.593750
vt 0.812500 0.593750
vt 0.812500 0.625000
vt 0.781250 0.625000
vt 0.781250 0.531250
vt 0.812500 0.531250
vt 0.812500 0.562500
vt 0.781250 0.562500
vt 0.843750 0.531250
vt 0.875000 0.531250
vt 0.875000 0.562500
vt 0.843750 0.562500
vt 0.656250 0.593750
vt 0.687500 0.593750
vt 0.687500 0.625000
vt 0.656250 0.625000
vt 0.656250 0.531250
vt 0.687500 0.531250
vt 0.687500 0.562500
vt 0.656250 0.562500
vt 0.718750 0.531250
vt 0.750000 0.531250
vt 0.750000 0.562500
vt 0.718750 0.562500
vt 0.656250 0.718750
vt 0.687500 0.718750
vt 0.687500 0.750000
vt 0.656250 0.750000
vt 0.656250 0.656250
vt 0.687500 0.656250
vt 0.687500 0.687500
vt 0.656250 0.687500
vt 0.718750 0.656250
vt 0.750000 0.656250
vt 0.750000 0.687500
vt 0.718750 0.687500
vt 0.781250 0.718750
vt 0.812500 0.718750
vt 0.812500 0.750000
vt 0.781250 0.750000
vt 0.781250 0.656250
vt 0.812500 0.656250
vt 0.812500 0.687500
vt 0.781250 0.687500
vt 0.843750 0.656250
vt 0.875000 0.656250
vt 0.875000 0.687500
vt 0.843750 0.687500
vt 0.687500 0.500000
vt 0.718750 0.500000
vt 0.750000 0.500000
vt 0.656250 0.500000
vt 0.812500 0.500000
vt 0.843750 0.500000
vt 0.875000 0.500000
vt 0.781250 0.500000
vn -1.0000 0.0015 -0.0092
vn -0.0007 0.0058 -1.0000
vn 1.0000 0.0020 -0.0020
vn 0.0064 -0.0047 1.0000
vn 0.0000 -1.0000 0.0000
vn 0.0378 0.9956 -0.0857
vn -0.0527 0.9929 -0.1069
vn -0.0839 0.9937 0.0744
vn -0.1336 0.9900 -0.0452
vn -0.1132 0.9918 0.0593
vn -0.0112 0.9866 -0.1625
vn -0.1169 0.9929 0.0201
vn 0.1255 0.9911 0.0436
vn -0.0869 0.9960 -0.0207
vn 0.1209 0.9909 0.0595
vn 0.0236 0.9936 0.1107
vn -0.1300 0.9885 0.0776
vn 0.1326 0.9863 -0.0983
vn -0.0305 0.9889 -0.1454
vn -0.1157 0.9930 0.0251
vn -0.0467 0.9965 -0.0699
vn 0.0709 0.9975 -0.0031
vn 0.1067 0.9926 0.0586
vn -0.0412 0.9854 0.1649
vn -0.0153 0.9975 -0.0685
vn 0.0807 0.9967 0.0026
vn -0.1210 0.9927 -0.0004
vn 0.0253 0.9929 -0.1165
vn 0.0181 0.9930 0.1168
vn -0.1482 0.9887 0.0233
vn -0.0479 0.9981 -0.0386
vn -0.0585 0.9939 0.0934
vn 0.0311 0.9987 0.0407
vn 0.0456 0.9990 0.0033
vn 0.0810 0.9893 -0.1214
vn -0.0566 0.9946 -0.0865
vn -0.0222 0.9970 0.0739
vn 0.0010 0.9988 0.0480
vn -0.0618 0.9969 -0.0480
vn 0.0470 0.9981 0.0408
vn 0.0279 0.9927 -0.1170
vn 0.1466 0.9809 -0.1275
vn 0.0527 0.9978 -0.0411
vn 0.0236 0.9986 -0.0473
vn -0.0547 0.9964 -0.0646
vn 0.0254 0.9984 -0.0507
vn 0.0444 0.9886 0.1437
vn 0.0522 0.9986 -0.0065
vn 0.0994 0.9876 -0.1215
vn 0.1295 0.9885 -0.0776
vn -0.0592 0.9895 -0.1318
vn -0.0869 0.9959 -0.0243
vn -0.1216 0.9909 -0.0573
vn -0.0663 0.9978 -0.0067
vn 0.1061 0.9941 0.0231
vn 0.0048 0.9976 0.0687
vn 0.0306 0.9967 0.0749
vn 0.1797 0.9803 0.0823
vn 0.0398 0.9978 0.0522
vn -0.1592 0.9872 0.0128
vn -0.0135 0.9957 0.0916
vn -0.0225 0.9904 -0.1366
vn 0.0401 0.9992 -0.0055
vn 0.0664 0.9978 -0.0082
vn 0.0187 0.9976 -0.0671
vn 0.0068 0.9985 0.0546
vn -0.0069 0.9914 -0.1306
vn 0.1298 0.9912 0.0252
vn -0.0476 0.9983 0.0333
usemtl None
s off
f 1/1/1 2/2/1 46/3/1 18/4/1 34/5/1 9/6/1 42/7/1 14/8/1 30/9/1 4/10/1 3/11/1
f 3/11/2 4/10/2 47/12/2 19/13/2 35/14/2 10/15/2 43/16/2 15/17/2 31/18/2 8/19/2 7/20/2
f 7/20/3 8/19/3 48/21/3 20/22/3 36/23/3 11/24/3 44/25/3 16/26/3 32/27/3 6/28/3 5/29/3
f 5/29/4 6/28/4 49/30/4 21/31/4 37/32/4 12/33/4 45/34/4 17/35/4 33/36/4 2/37/4 1/38/4
f 3/39/5 7/20/5 5/29/5 1/40/5
f 85/41/6 46/42/6 2/43/6 33/44/6
f 84/45/7 38/46/7 12/47/7 37/48/7
f 83/49/8 39/50/8 13/51/8 52/52/8
f 82/53/9 42/54/9 9/55/9 53/56/9
f 81/57/10 54/58/10 25/59/10 41/60/10
f 80/61/11 55/62/11 26/63/11 56/64/11
f 79/65/12 30/66/12 14/67/12 57/68/12
f 78/69/13 58/70/13 24/71/13 40/72/13
f 77/73/14 59/74/14 27/75/14 60/76/14
f 76/77/15 51/78/15 23/79/15 61/80/15
f 75/81/16 62/82/16 21/83/16 49/84/16
f 74/85/17 63/86/17 28/87/17 64/88/17
f 73/89/18 50/90/18 22/91/18 65/92/18
f 72/93/19 66/94/19 17/95/19 45/96/19
f 71/97/20 67/98/20 29/99/20 68/100/20
f 70/101/21 34/102/21 18/103/21 69/104/21
f 67/98/22 70/101/22 69/104/22 29/99/22
f 25/59/23 53/56/23 70/101/23 67/98/23
f 53/56/24 9/55/24 34/102/24 70/101/24
f 50/90/25 71/97/25 68/100/25 22/91/25
f 13/51/26 41/60/26 71/97/26 50/90/26
f 41/60/27 25/59/27 67/98/27 71/97/27
f 38/46/28 72/93/28 45/96/28 12/47/28
f 22/91/29 68/100/29 72/93/29 38/46/29
f 68/100/30 29/99/30 66/94/30 72/93/30
f 63/86/31 73/89/31 65/92/31 28/87/31
f 24/71/32 52/52/32 73/89/32 63/86/32
f 52/52/33 13/51/33 50/90/33 73/89/33
f 44/25/34 74/85/34 64/88/34 16/26/34
f 11/24/35 40/72/35 74/85/35 44/25/35
f 40/72/36 24/71/36 63/86/36 74/85/36
f 32/27/37 75/81/37 49/84/37 6/28/37
f 16/26/38 64/88/38 75/81/38 32/27/38
f 64/88/39 28/87/39 62/82/39 75/81/39
f 59/74/40 76/77/40 61/80/40 27/75/40
f 15/105/41 43/106/41 76/77/41 59/74/41
f 43/106/42 10/107/42 51/78/42 76/77/42
f 48/21/43 77/73/43 60/76/43 20/22/43
f 8/19/44 31/108/44 77/73/44 48/21/44
f 31/108/45 15/105/45 59/74/45 77/73/45
f 36/23/46 78/69/46 40/72/46 11/24/46
f 20/22/47 60/76/47 78/69/47 36/23/47
f 60/76/48 27/75/48 58/70/48 78/69/48
f 55/62/49 79/65/49 57/68/49 26/63/49
f 19/109/50 47/110/50 79/65/50 55/62/50
f 47/110/51 4/111/51 30/66/51 79/65/51
f 51/78/52 80/61/52 56/64/52 23/79/52
f 10/107/53 35/112/53 80/61/53 51/78/53
f 35/112/54 19/109/54 55/62/54 80/61/54
f 39/50/55 81/57/55 41/60/55 13/51/55
f 23/79/56 56/64/56 81/57/56 39/50/56
f 56/64/57 26/63/57 54/58/57 81/57/57
f 54/58/58 82/53/58 53/56/58 25/59/58
f 26/63/59 57/68/59 82/53/59 54/58/59
f 57/68/60 14/67/60 42/54/60 82/53/60
f 58/70/61 83/49/61 52/52/61 24/71/61
f 27/75/62 61/80/62 83/49/62 58/70/62
f 61/80/63 23/79/63 39/50/63 83/49/63
f 62/82/64 84/45/64 37/48/64 21/83/64
f 28/87/65 65/92/65 84/45/65 62/82/65
f 65/92/66 22/91/66 38/46/66 84/45/66
f 66/94/67 85/41/67 33/44/67 17/95/67
f 29/99/68 69/104/68 85/41/68 66/94/68
f 69/104/69 18/103/69 46/42/69 85/41/69
